<mxfile host="app.diagrams.net" modified="2023-05-30T09:04:45.881Z" agent="Mozilla/5.0 (Windows NT 10.0; Win64; x64; rv:109.0) Gecko/20100101 Firefox/113.0" etag="FwebLy28EnnQE6__U-pp" version="21.3.4" type="github">
  <diagram name="Page-1" id="c4acf3e9-155e-7222-9cf6-157b1a14988f">
    <mxGraphModel dx="1434" dy="774" grid="1" gridSize="10" guides="1" tooltips="1" connect="1" arrows="1" fold="1" page="1" pageScale="1" pageWidth="850" pageHeight="1100" background="none" math="0" shadow="0">
      <root>
        <mxCell id="0" />
        <mxCell id="1" parent="0" />
        <mxCell id="pE1J3VTqfMLLGffhc5EJ-10" value="&lt;div&gt;Room&lt;/div&gt;" style="swimlane;fontStyle=0;childLayout=stackLayout;horizontal=1;startSize=30;horizontalStack=0;resizeParent=1;resizeParentMax=0;resizeLast=0;collapsible=1;marginBottom=0;whiteSpace=wrap;html=1;" parent="1" vertex="1">
          <mxGeometry x="330" y="320" width="220" height="120" as="geometry" />
        </mxCell>
        <mxCell id="pE1J3VTqfMLLGffhc5EJ-11" value="+discountCalc(Sring discount) : int {virtual}" style="text;strokeColor=none;fillColor=none;align=left;verticalAlign=middle;spacingLeft=4;spacingRight=4;overflow=hidden;points=[[0,0.5],[1,0.5]];portConstraint=eastwest;rotatable=0;whiteSpace=wrap;html=1;" parent="pE1J3VTqfMLLGffhc5EJ-10" vertex="1">
          <mxGeometry y="30" width="220" height="30" as="geometry" />
        </mxCell>
        <mxCell id="Fub8hcJ4NYJPcRC2N2-U-19" value="" style="endArrow=none;html=1;rounded=0;" edge="1" parent="pE1J3VTqfMLLGffhc5EJ-10">
          <mxGeometry width="50" height="50" relative="1" as="geometry">
            <mxPoint x="-190" y="50" as="sourcePoint" />
            <mxPoint x="-10" y="50" as="targetPoint" />
          </mxGeometry>
        </mxCell>
        <mxCell id="pE1J3VTqfMLLGffhc5EJ-12" value="-List&amp;lt;Char&amp;gt; rows" style="text;strokeColor=none;fillColor=none;align=left;verticalAlign=middle;spacingLeft=4;spacingRight=4;overflow=hidden;points=[[0,0.5],[1,0.5]];portConstraint=eastwest;rotatable=0;whiteSpace=wrap;html=1;" parent="pE1J3VTqfMLLGffhc5EJ-10" vertex="1">
          <mxGeometry y="60" width="220" height="30" as="geometry" />
        </mxCell>
        <mxCell id="pE1J3VTqfMLLGffhc5EJ-13" value="-List&amp;lt;int&amp;gt; places" style="text;strokeColor=none;fillColor=none;align=left;verticalAlign=middle;spacingLeft=4;spacingRight=4;overflow=hidden;points=[[0,0.5],[1,0.5]];portConstraint=eastwest;rotatable=0;whiteSpace=wrap;html=1;" parent="pE1J3VTqfMLLGffhc5EJ-10" vertex="1">
          <mxGeometry y="90" width="220" height="30" as="geometry" />
        </mxCell>
        <mxCell id="pE1J3VTqfMLLGffhc5EJ-14" value="Visitor" style="swimlane;fontStyle=0;childLayout=stackLayout;horizontal=1;startSize=30;horizontalStack=0;resizeParent=1;resizeParentMax=0;resizeLast=0;collapsible=1;marginBottom=0;whiteSpace=wrap;html=1;" parent="1" vertex="1">
          <mxGeometry x="450" y="50" width="350" height="120" as="geometry" />
        </mxCell>
        <mxCell id="pE1J3VTqfMLLGffhc5EJ-15" value="Reserve()" style="text;strokeColor=none;fillColor=none;align=left;verticalAlign=middle;spacingLeft=4;spacingRight=4;overflow=hidden;points=[[0,0.5],[1,0.5]];portConstraint=eastwest;rotatable=0;whiteSpace=wrap;html=1;" parent="pE1J3VTqfMLLGffhc5EJ-14" vertex="1">
          <mxGeometry y="30" width="350" height="30" as="geometry" />
        </mxCell>
        <mxCell id="pE1J3VTqfMLLGffhc5EJ-16" value="Buy()" style="text;strokeColor=none;fillColor=none;align=left;verticalAlign=middle;spacingLeft=4;spacingRight=4;overflow=hidden;points=[[0,0.5],[1,0.5]];portConstraint=eastwest;rotatable=0;whiteSpace=wrap;html=1;" parent="pE1J3VTqfMLLGffhc5EJ-14" vertex="1">
          <mxGeometry y="60" width="350" height="30" as="geometry" />
        </mxCell>
        <mxCell id="pE1J3VTqfMLLGffhc5EJ-17" value="String discount" style="text;strokeColor=none;fillColor=none;align=left;verticalAlign=middle;spacingLeft=4;spacingRight=4;overflow=hidden;points=[[0,0.5],[1,0.5]];portConstraint=eastwest;rotatable=0;whiteSpace=wrap;html=1;" parent="pE1J3VTqfMLLGffhc5EJ-14" vertex="1">
          <mxGeometry y="90" width="350" height="30" as="geometry" />
        </mxCell>
        <mxCell id="pE1J3VTqfMLLGffhc5EJ-27" value="Cinema" style="swimlane;fontStyle=0;childLayout=stackLayout;horizontal=1;startSize=30;horizontalStack=0;resizeParent=1;resizeParentMax=0;resizeLast=0;collapsible=1;marginBottom=0;whiteSpace=wrap;html=1;" parent="1" vertex="1">
          <mxGeometry x="30" y="190" width="220" height="120" as="geometry" />
        </mxCell>
        <mxCell id="pE1J3VTqfMLLGffhc5EJ-28" value="-List&amp;lt;Room&amp;gt; rooms" style="text;strokeColor=none;fillColor=none;align=left;verticalAlign=middle;spacingLeft=4;spacingRight=4;overflow=hidden;points=[[0,0.5],[1,0.5]];portConstraint=eastwest;rotatable=0;whiteSpace=wrap;html=1;" parent="pE1J3VTqfMLLGffhc5EJ-27" vertex="1">
          <mxGeometry y="30" width="220" height="30" as="geometry" />
        </mxCell>
        <mxCell id="pE1J3VTqfMLLGffhc5EJ-29" value="-List&amp;lt;Show&amp;gt; shows" style="text;strokeColor=none;fillColor=none;align=left;verticalAlign=middle;spacingLeft=4;spacingRight=4;overflow=hidden;points=[[0,0.5],[1,0.5]];portConstraint=eastwest;rotatable=0;whiteSpace=wrap;html=1;" parent="pE1J3VTqfMLLGffhc5EJ-27" vertex="1">
          <mxGeometry y="60" width="220" height="30" as="geometry" />
        </mxCell>
        <mxCell id="pE1J3VTqfMLLGffhc5EJ-30" value="Item 3" style="text;strokeColor=none;fillColor=none;align=left;verticalAlign=middle;spacingLeft=4;spacingRight=4;overflow=hidden;points=[[0,0.5],[1,0.5]];portConstraint=eastwest;rotatable=0;whiteSpace=wrap;html=1;" parent="pE1J3VTqfMLLGffhc5EJ-27" vertex="1">
          <mxGeometry y="90" width="220" height="30" as="geometry" />
        </mxCell>
        <mxCell id="pE1J3VTqfMLLGffhc5EJ-31" value="Show" style="swimlane;fontStyle=0;childLayout=stackLayout;horizontal=1;startSize=30;horizontalStack=0;resizeParent=1;resizeParentMax=0;resizeLast=0;collapsible=1;marginBottom=0;whiteSpace=wrap;html=1;" parent="1" vertex="1">
          <mxGeometry x="330" y="180" width="350" height="120" as="geometry" />
        </mxCell>
        <mxCell id="pE1J3VTqfMLLGffhc5EJ-32" value="-String title" style="text;strokeColor=none;fillColor=none;align=left;verticalAlign=middle;spacingLeft=4;spacingRight=4;overflow=hidden;points=[[0,0.5],[1,0.5]];portConstraint=eastwest;rotatable=0;whiteSpace=wrap;html=1;" parent="pE1J3VTqfMLLGffhc5EJ-31" vertex="1">
          <mxGeometry y="30" width="350" height="30" as="geometry" />
        </mxCell>
        <mxCell id="pE1J3VTqfMLLGffhc5EJ-33" value="-String date" style="text;strokeColor=none;fillColor=none;align=left;verticalAlign=middle;spacingLeft=4;spacingRight=4;overflow=hidden;points=[[0,0.5],[1,0.5]];portConstraint=eastwest;rotatable=0;whiteSpace=wrap;html=1;" parent="pE1J3VTqfMLLGffhc5EJ-31" vertex="1">
          <mxGeometry y="60" width="350" height="30" as="geometry" />
        </mxCell>
        <mxCell id="pE1J3VTqfMLLGffhc5EJ-34" value="-Room r" style="text;strokeColor=none;fillColor=none;align=left;verticalAlign=middle;spacingLeft=4;spacingRight=4;overflow=hidden;points=[[0,0.5],[1,0.5]];portConstraint=eastwest;rotatable=0;whiteSpace=wrap;html=1;" parent="pE1J3VTqfMLLGffhc5EJ-31" vertex="1">
          <mxGeometry y="90" width="350" height="30" as="geometry" />
        </mxCell>
        <mxCell id="Fub8hcJ4NYJPcRC2N2-U-1" value="&amp;lt;&amp;lt;singleton&amp;gt;&amp;gt;&lt;br&gt;&lt;div&gt;Small Room&lt;/div&gt;" style="swimlane;fontStyle=0;childLayout=stackLayout;horizontal=1;startSize=30;horizontalStack=0;resizeParent=1;resizeParentMax=0;resizeLast=0;collapsible=1;marginBottom=0;whiteSpace=wrap;html=1;" vertex="1" parent="1">
          <mxGeometry x="50" y="610" width="140" height="120" as="geometry" />
        </mxCell>
        <mxCell id="Fub8hcJ4NYJPcRC2N2-U-2" value="+discountCalc(Sring discount) : int {override}" style="text;strokeColor=none;fillColor=none;align=left;verticalAlign=middle;spacingLeft=4;spacingRight=4;overflow=hidden;points=[[0,0.5],[1,0.5]];portConstraint=eastwest;rotatable=0;whiteSpace=wrap;html=1;" vertex="1" parent="Fub8hcJ4NYJPcRC2N2-U-1">
          <mxGeometry y="30" width="140" height="30" as="geometry" />
        </mxCell>
        <mxCell id="Fub8hcJ4NYJPcRC2N2-U-3" value="Item 2" style="text;strokeColor=none;fillColor=none;align=left;verticalAlign=middle;spacingLeft=4;spacingRight=4;overflow=hidden;points=[[0,0.5],[1,0.5]];portConstraint=eastwest;rotatable=0;whiteSpace=wrap;html=1;" vertex="1" parent="Fub8hcJ4NYJPcRC2N2-U-1">
          <mxGeometry y="60" width="140" height="30" as="geometry" />
        </mxCell>
        <mxCell id="Fub8hcJ4NYJPcRC2N2-U-4" value="Item 3" style="text;strokeColor=none;fillColor=none;align=left;verticalAlign=middle;spacingLeft=4;spacingRight=4;overflow=hidden;points=[[0,0.5],[1,0.5]];portConstraint=eastwest;rotatable=0;whiteSpace=wrap;html=1;" vertex="1" parent="Fub8hcJ4NYJPcRC2N2-U-1">
          <mxGeometry y="90" width="140" height="30" as="geometry" />
        </mxCell>
        <mxCell id="Fub8hcJ4NYJPcRC2N2-U-5" value="&lt;div&gt;&amp;lt;&amp;lt;singleton&amp;gt;&amp;gt;&lt;/div&gt;&lt;div&gt;Big Room&lt;/div&gt;" style="swimlane;fontStyle=0;childLayout=stackLayout;horizontal=1;startSize=30;horizontalStack=0;resizeParent=1;resizeParentMax=0;resizeLast=0;collapsible=1;marginBottom=0;whiteSpace=wrap;html=1;" vertex="1" parent="1">
          <mxGeometry x="380" y="610" width="140" height="120" as="geometry" />
        </mxCell>
        <mxCell id="Fub8hcJ4NYJPcRC2N2-U-6" value="+discountCalc(Sring discount) : int {override}" style="text;strokeColor=none;fillColor=none;align=left;verticalAlign=middle;spacingLeft=4;spacingRight=4;overflow=hidden;points=[[0,0.5],[1,0.5]];portConstraint=eastwest;rotatable=0;whiteSpace=wrap;html=1;" vertex="1" parent="Fub8hcJ4NYJPcRC2N2-U-5">
          <mxGeometry y="30" width="140" height="30" as="geometry" />
        </mxCell>
        <mxCell id="Fub8hcJ4NYJPcRC2N2-U-7" value="Item 2" style="text;strokeColor=none;fillColor=none;align=left;verticalAlign=middle;spacingLeft=4;spacingRight=4;overflow=hidden;points=[[0,0.5],[1,0.5]];portConstraint=eastwest;rotatable=0;whiteSpace=wrap;html=1;" vertex="1" parent="Fub8hcJ4NYJPcRC2N2-U-5">
          <mxGeometry y="60" width="140" height="30" as="geometry" />
        </mxCell>
        <mxCell id="Fub8hcJ4NYJPcRC2N2-U-8" value="Item 3" style="text;strokeColor=none;fillColor=none;align=left;verticalAlign=middle;spacingLeft=4;spacingRight=4;overflow=hidden;points=[[0,0.5],[1,0.5]];portConstraint=eastwest;rotatable=0;whiteSpace=wrap;html=1;" vertex="1" parent="Fub8hcJ4NYJPcRC2N2-U-5">
          <mxGeometry y="90" width="140" height="30" as="geometry" />
        </mxCell>
        <mxCell id="Fub8hcJ4NYJPcRC2N2-U-9" value="&amp;lt;&amp;lt;singleton&amp;gt;&amp;gt;&lt;div&gt;VIP Room&lt;/div&gt;" style="swimlane;fontStyle=0;childLayout=stackLayout;horizontal=1;startSize=30;horizontalStack=0;resizeParent=1;resizeParentMax=0;resizeLast=0;collapsible=1;marginBottom=0;whiteSpace=wrap;html=1;" vertex="1" parent="1">
          <mxGeometry x="660" y="610" width="140" height="120" as="geometry" />
        </mxCell>
        <mxCell id="Fub8hcJ4NYJPcRC2N2-U-10" value="+discountCalc(Sring discount) : int {override}" style="text;strokeColor=none;fillColor=none;align=left;verticalAlign=middle;spacingLeft=4;spacingRight=4;overflow=hidden;points=[[0,0.5],[1,0.5]];portConstraint=eastwest;rotatable=0;whiteSpace=wrap;html=1;" vertex="1" parent="Fub8hcJ4NYJPcRC2N2-U-9">
          <mxGeometry y="30" width="140" height="30" as="geometry" />
        </mxCell>
        <mxCell id="Fub8hcJ4NYJPcRC2N2-U-11" value="Item 2" style="text;strokeColor=none;fillColor=none;align=left;verticalAlign=middle;spacingLeft=4;spacingRight=4;overflow=hidden;points=[[0,0.5],[1,0.5]];portConstraint=eastwest;rotatable=0;whiteSpace=wrap;html=1;" vertex="1" parent="Fub8hcJ4NYJPcRC2N2-U-9">
          <mxGeometry y="60" width="140" height="30" as="geometry" />
        </mxCell>
        <mxCell id="Fub8hcJ4NYJPcRC2N2-U-12" value="Item 3" style="text;strokeColor=none;fillColor=none;align=left;verticalAlign=middle;spacingLeft=4;spacingRight=4;overflow=hidden;points=[[0,0.5],[1,0.5]];portConstraint=eastwest;rotatable=0;whiteSpace=wrap;html=1;" vertex="1" parent="Fub8hcJ4NYJPcRC2N2-U-9">
          <mxGeometry y="90" width="140" height="30" as="geometry" />
        </mxCell>
        <mxCell id="Fub8hcJ4NYJPcRC2N2-U-13" value="" style="endArrow=block;endSize=16;endFill=0;html=1;rounded=0;entryX=0.543;entryY=1.167;entryDx=0;entryDy=0;entryPerimeter=0;" edge="1" parent="1" target="pE1J3VTqfMLLGffhc5EJ-13">
          <mxGeometry width="160" relative="1" as="geometry">
            <mxPoint x="450" y="600" as="sourcePoint" />
            <mxPoint x="480" y="580" as="targetPoint" />
          </mxGeometry>
        </mxCell>
        <mxCell id="Fub8hcJ4NYJPcRC2N2-U-14" value="" style="endArrow=none;html=1;rounded=0;" edge="1" parent="1">
          <mxGeometry width="50" height="50" relative="1" as="geometry">
            <mxPoint x="110" y="580" as="sourcePoint" />
            <mxPoint x="740" y="580" as="targetPoint" />
          </mxGeometry>
        </mxCell>
        <mxCell id="Fub8hcJ4NYJPcRC2N2-U-15" value="" style="endArrow=none;html=1;rounded=0;exitX=0.429;exitY=-0.042;exitDx=0;exitDy=0;exitPerimeter=0;" edge="1" parent="1" source="Fub8hcJ4NYJPcRC2N2-U-1">
          <mxGeometry width="50" height="50" relative="1" as="geometry">
            <mxPoint x="110" y="630" as="sourcePoint" />
            <mxPoint x="110" y="580" as="targetPoint" />
          </mxGeometry>
        </mxCell>
        <mxCell id="Fub8hcJ4NYJPcRC2N2-U-16" value="" style="endArrow=none;html=1;rounded=0;entryX=0.564;entryY=-0.042;entryDx=0;entryDy=0;entryPerimeter=0;" edge="1" parent="1" target="Fub8hcJ4NYJPcRC2N2-U-9">
          <mxGeometry width="50" height="50" relative="1" as="geometry">
            <mxPoint x="740" y="580" as="sourcePoint" />
            <mxPoint x="670" y="530" as="targetPoint" />
          </mxGeometry>
        </mxCell>
        <mxCell id="Fub8hcJ4NYJPcRC2N2-U-17" value="" style="endArrow=diamondThin;endFill=1;endSize=24;html=1;rounded=0;" edge="1" parent="1">
          <mxGeometry width="160" relative="1" as="geometry">
            <mxPoint x="330" y="249.5" as="sourcePoint" />
            <mxPoint x="250" y="250" as="targetPoint" />
          </mxGeometry>
        </mxCell>
        <mxCell id="Fub8hcJ4NYJPcRC2N2-U-18" value="" style="endArrow=diamondThin;endFill=1;endSize=24;html=1;rounded=0;" edge="1" parent="1">
          <mxGeometry width="160" relative="1" as="geometry">
            <mxPoint x="139.5" y="369.5" as="sourcePoint" />
            <mxPoint x="139.5" y="310" as="targetPoint" />
          </mxGeometry>
        </mxCell>
        <mxCell id="Fub8hcJ4NYJPcRC2N2-U-20" value="-rooms" style="text;html=1;align=center;verticalAlign=middle;resizable=0;points=[];autosize=1;strokeColor=none;fillColor=none;" vertex="1" parent="1">
          <mxGeometry x="270" y="365" width="60" height="30" as="geometry" />
        </mxCell>
        <mxCell id="Fub8hcJ4NYJPcRC2N2-U-21" value="1.." style="text;html=1;align=center;verticalAlign=middle;resizable=0;points=[];autosize=1;strokeColor=none;fillColor=none;" vertex="1" parent="1">
          <mxGeometry x="280" y="335" width="40" height="30" as="geometry" />
        </mxCell>
        <mxCell id="Fub8hcJ4NYJPcRC2N2-U-22" value="&lt;div&gt;-shows&lt;/div&gt;" style="text;html=1;align=center;verticalAlign=middle;resizable=0;points=[];autosize=1;strokeColor=none;fillColor=none;" vertex="1" parent="1">
          <mxGeometry x="280" y="248" width="60" height="30" as="geometry" />
        </mxCell>
        <mxCell id="Fub8hcJ4NYJPcRC2N2-U-23" value="*" style="text;html=1;align=center;verticalAlign=middle;resizable=0;points=[];autosize=1;strokeColor=none;fillColor=none;" vertex="1" parent="1">
          <mxGeometry x="295" y="228" width="30" height="30" as="geometry" />
        </mxCell>
        <mxCell id="Fub8hcJ4NYJPcRC2N2-U-27" value="Ticket" style="swimlane;fontStyle=0;childLayout=stackLayout;horizontal=1;startSize=26;horizontalStack=0;resizeParent=1;resizeParentMax=0;resizeLast=0;collapsible=1;marginBottom=0;align=center;fontSize=14;" vertex="1" parent="1">
          <mxGeometry x="630" y="320" width="160" height="116" as="geometry" />
        </mxCell>
        <mxCell id="Fub8hcJ4NYJPcRC2N2-U-28" value="-Show s" style="text;strokeColor=none;fillColor=none;spacingLeft=4;spacingRight=4;overflow=hidden;rotatable=0;points=[[0,0.5],[1,0.5]];portConstraint=eastwest;fontSize=12;whiteSpace=wrap;html=1;" vertex="1" parent="Fub8hcJ4NYJPcRC2N2-U-27">
          <mxGeometry y="26" width="160" height="30" as="geometry" />
        </mxCell>
        <mxCell id="Fub8hcJ4NYJPcRC2N2-U-29" value="-Char row" style="text;strokeColor=none;fillColor=none;spacingLeft=4;spacingRight=4;overflow=hidden;rotatable=0;points=[[0,0.5],[1,0.5]];portConstraint=eastwest;fontSize=12;whiteSpace=wrap;html=1;" vertex="1" parent="Fub8hcJ4NYJPcRC2N2-U-27">
          <mxGeometry y="56" width="160" height="30" as="geometry" />
        </mxCell>
        <mxCell id="Fub8hcJ4NYJPcRC2N2-U-30" value="-Int place" style="text;strokeColor=none;fillColor=none;spacingLeft=4;spacingRight=4;overflow=hidden;rotatable=0;points=[[0,0.5],[1,0.5]];portConstraint=eastwest;fontSize=12;whiteSpace=wrap;html=1;" vertex="1" parent="Fub8hcJ4NYJPcRC2N2-U-27">
          <mxGeometry y="86" width="160" height="30" as="geometry" />
        </mxCell>
        <mxCell id="Fub8hcJ4NYJPcRC2N2-U-31" value="" style="endArrow=diamondThin;endFill=1;endSize=24;html=1;rounded=0;exitX=0.688;exitY=-0.052;exitDx=0;exitDy=0;exitPerimeter=0;" edge="1" parent="1" source="Fub8hcJ4NYJPcRC2N2-U-27">
          <mxGeometry width="160" relative="1" as="geometry">
            <mxPoint x="740" y="300" as="sourcePoint" />
            <mxPoint x="740" y="170" as="targetPoint" />
          </mxGeometry>
        </mxCell>
      </root>
    </mxGraphModel>
  </diagram>
</mxfile>
